<?xml version="1.0" encoding="UTF-8" standalone="no"?>
<svg
   xmlns:dc="http://purl.org/dc/elements/1.1/"
   xmlns:cc="http://creativecommons.org/ns#"
   xmlns:rdf="http://www.w3.org/1999/02/22-rdf-syntax-ns#"
   xmlns:svg="http://www.w3.org/2000/svg"
   xmlns="http://www.w3.org/2000/svg"
   xmlns:sodipodi="http://sodipodi.sourceforge.net/DTD/sodipodi-0.dtd"
   xmlns:inkscape="http://www.inkscape.org/namespaces/inkscape"
   version="1.0"
   width="960.513pt"
   height="100pt"
   viewBox="0 0 1280.6841 133.33333"
   preserveAspectRatio="xMidYMid meet"
   id="svg3121"
   sodipodi:docname="guitarnav_two.svg"
   inkscape:version="1.0.1 (0767f8302a, 2020-10-17)">
  <metadata
     id="metadata3127">
    <rdf:RDF>
      <cc:Work
         rdf:about="">
        <dc:format>image/svg+xml</dc:format>
        <dc:type
           rdf:resource="http://purl.org/dc/dcmitype/StillImage" />
        <dc:title></dc:title>
      </cc:Work>
    </rdf:RDF>
  </metadata>
  <defs
     id="defs3125">
    <clipPath
       clipPathUnits="userSpaceOnUse"
       id="clipPath3696">
      <rect
         style="opacity:0.95;fill:none;stroke:#f6151d;stroke-width:36.6762;stroke-linecap:round;stroke-linejoin:round;stroke-opacity:1;paint-order:markers fill stroke"
         id="rect3698"
         width="14137.5"
         height="2618.1951"
         x="-13127.5"
         y="-3162.7275"
         ry="91.170265"
         clip-path="none"
         transform="matrix(0,-1,-1,0,0,0)" />
    </clipPath>
  </defs>
  <sodipodi:namedview
     pagecolor="#ffffff"
     bordercolor="#666666"
     borderopacity="1"
     objecttolerance="10"
     gridtolerance="10"
     guidetolerance="10"
     inkscape:pageopacity="0"
     inkscape:pageshadow="2"
     inkscape:window-width="1294"
     inkscape:window-height="704"
     id="namedview3123"
     showgrid="true"
     showguides="false"
     inkscape:zoom="0.64453125"
     inkscape:cx="825.42193"
     inkscape:cy="-91.174627"
     inkscape:window-x="72"
     inkscape:window-y="27"
     inkscape:window-maximized="1"
     inkscape:current-layer="svg3121"
     units="pt"
     inkscape:pagecheckerboard="false"
     borderlayer="false"
     inkscape:showpageshadow="true">
    <inkscape:grid
       type="xygrid"
       id="grid3129" />
  </sodipodi:namedview>
  <g
     transform="matrix(0,-0.05188369,-0.10081041,0,1288.1815,164.10368)"
     fill="#000000"
     stroke="none"
     id="g3119"
     clip-path="url(#clipPath3696)"
     inkscape:export-xdpi="96"
     inkscape:export-ydpi="96">
    <path
       d="m 3162.9146,12801.141 c -19,-5 -190.9146,-32.141 -292.9146,-47.141 -225,-32 -233,-35 -226,-72 3,-15 8,-73 12,-129 6,-93 5,-103 -11,-109 -21,-9 -45,19 -45,52 0,36 -26,54 -79,54 -83,0 -138,-64 -128,-149 10,-85 109,-148 177,-111 11,6 24,28 30,50 9,33 15,40 36,40 13,0 27,-6 29,-12 3,-7 11,-92 19,-188 15,-185 12,-204 -28,-198 -15,2 -24,14 -31,45 -13,53 -21,60 -70,68 -32,5 -47,2 -75,-17 -66,-44 -87,-124 -50,-186 30,-49 77,-74 125,-67 50,7 61,18 69,59 7,36 27,50 57,41 24,-8 26,-18 40,-218 9,-127 9,-171 0,-180 -19,-19 -45,6 -54,52 -9,46 -31,61 -93,61 -26,0 -43,-9 -72,-38 -63,-63 -63,-138 1,-201 31,-29 39,-32 88,-29 49,3 55,6 67,33 22,50 29,60 43,62 31,6 38,-15 50,-157 l 12,-145 69,-127 70,-128 -6,-622 c -3,-343 -10,-855 -15,-1138 -6,-283 -15,-765 -21,-1070 -31,-1673 -29,-1614 -47,-1627 -10,-8 -46,-13 -82,-13 -86,0 -376,-26 -516,-45 -421,-60 -677,-156 -834,-314 -118,-119 -168,-257 -178,-496 -10,-255 18,-535 86,-860 47,-222 54,-299 49,-535 -4,-208 -6,-219 -41,-350 -45,-170 -102,-324 -265,-720 C 887,2769 798,2535 752,2385 630,1990 591,1690 620,1375 634,1233 653,1139 696,1011 895,413 1431,99 2370,30 c 85,-6 721.9146,6.559241 792.9146,1.559241 894.3922,368.745609 362.0228,12906.634759 0,12769.581759 z"
       id="path3117"
       sodipodi:nodetypes="cccccssscsscccccccccccsssscsccccccccccsccccccccccccc" />
  </g>
</svg>
