<?xml version="1.0" encoding="UTF-8" standalone="no"?>
<svg
   xmlns:dc="http://purl.org/dc/elements/1.1/"
   xmlns:cc="http://creativecommons.org/ns#"
   xmlns:rdf="http://www.w3.org/1999/02/22-rdf-syntax-ns#"
   xmlns:svg="http://www.w3.org/2000/svg"
   xmlns="http://www.w3.org/2000/svg"
   xmlns:sodipodi="http://sodipodi.sourceforge.net/DTD/sodipodi-0.dtd"
   xmlns:inkscape="http://www.inkscape.org/namespaces/inkscape"
   version="1.1"
   id="svg56"
   width="1706.88"
   height="427.20001"
   viewBox="0 0 1706.88 427.20001"
   sodipodi:docname="PRIMERNAVHORIZONTAL.svg"
   inkscape:version="1.0.1 (0767f8302a, 2020-10-17)">
  <metadata
     id="metadata62">
    <rdf:RDF>
      <cc:Work
         rdf:about="">
        <dc:format>image/svg+xml</dc:format>
        <dc:type
           rdf:resource="http://purl.org/dc/dcmitype/StillImage" />
        <dc:title></dc:title>
      </cc:Work>
    </rdf:RDF>
  </metadata>
  <defs
     id="defs60" />
  <sodipodi:namedview
     pagecolor="#ffffff"
     bordercolor="#666666"
     borderopacity="1"
     objecttolerance="10"
     gridtolerance="10"
     guidetolerance="10"
     inkscape:pageopacity="0"
     inkscape:pageshadow="2"
     inkscape:window-width="1294"
     inkscape:window-height="704"
     id="namedview58"
     showgrid="false"
     inkscape:zoom="0.64152137"
     inkscape:cx="853.44"
     inkscape:cy="213.60001"
     inkscape:window-x="72"
     inkscape:window-y="27"
     inkscape:window-maximized="1"
     inkscape:current-layer="g64" />
  <g
     inkscape:groupmode="layer"
     inkscape:label="Image"
     id="g64">
    <g
       id="g68">
      <path
         style="fill:#dadada;fill-opacity:1;stroke-width:0.96"
         d="m 864.78,46.384212 c 0.693,-0.277317 1.521,-0.243211 1.84,0.07579 0.319,0.319 -0.248,0.545895 -1.26,0.504211 -1.11835,-0.04606 -1.34582,-0.273544 -0.58,-0.580001 z m -49.92,-0.96 c 0.693,-0.277317 1.521,-0.243211 1.84,0.07579 0.319,0.319 -0.248,0.545895 -1.26,0.504211 -1.11835,-0.04606 -1.34582,-0.273544 -0.58,-0.580001 z m -154.56,-2.88 c 0.693,-0.277317 1.521,-0.243211 1.84,0.07579 0.319,0.319 -0.248,0.545895 -1.26,0.504211 -1.11835,-0.04606 -1.34582,-0.273544 -0.58,-0.580001 z m -51.84,-0.96 c 0.693,-0.277317 1.521,-0.243211 1.84,0.07579 0.319,0.319 -0.248,0.545895 -1.26,0.504211 -1.11835,-0.04606 -1.34582,-0.273544 -0.58,-0.580001 z m -51.84,-0.96 c 0.693,-0.277317 1.521,-0.243211 1.84,0.07579 0.319,0.319 -0.248,0.545895 -1.26,0.504211 -1.11835,-0.04606 -1.34582,-0.273544 -0.58,-0.580001 z M 400.14,37.744211 c 0.693,-0.277316 1.521,-0.24321 1.84,0.07579 0.319,0.319001 -0.248,0.545896 -1.26,0.504212 -1.11835,-0.04606 -1.34582,-0.273544 -0.58,-0.580002 z"
         id="path98" />
      <path
         style="fill:#cecece;fill-opacity:1;stroke-width:0.96"
         d="m 766.86,44.464212 c 0.693,-0.277317 1.521,-0.243211 1.84,0.07579 0.319,0.319 -0.248,0.545895 -1.26,0.504211 -1.11835,-0.04606 -1.34582,-0.273544 -0.58,-0.580001 z m -51.84,-0.96 c 0.693,-0.277317 1.521,-0.243211 1.84,0.07579 0.319,0.319 -0.248,0.545895 -1.26,0.504211 -1.11835,-0.04606 -1.34582,-0.273544 -0.58,-0.580001 z m -51.84,-0.96 c 0.693,-0.277317 1.521,-0.243211 1.84,0.07579 0.319,0.319 -0.248,0.545895 -1.26,0.504211 -1.11835,-0.04606 -1.34582,-0.273544 -0.58,-0.580001 z M 506.7,39.664211 c 0.693,-0.277316 1.521,-0.24321 1.84,0.07579 0.319,0.319001 -0.248,0.545896 -1.26,0.504212 -1.11835,-0.04606 -1.34582,-0.273544 -0.58,-0.580002 z m -51.84,-0.96 c 0.693,-0.277316 1.521,-0.24321 1.84,0.07579 0.319,0.319001 -0.248,0.545896 -1.26,0.504212 -1.11835,-0.04606 -1.34582,-0.273544 -0.58,-0.580002 z"
         id="path96" />
      <path
         style="fill:#c2c2c2;fill-opacity:1;stroke-width:0.96"
         d="m 819.66,45.424212 c 0.693,-0.277317 1.521,-0.243211 1.84,0.07579 0.319,0.319 -0.248,0.545895 -1.26,0.504211 -1.11835,-0.04606 -1.34582,-0.273544 -0.58,-0.580001 z m -206.4,-3.84 c 0.693,-0.277317 1.521,-0.243211 1.84,0.07579 0.319,0.319 -0.248,0.545895 -1.26,0.504211 -1.11835,-0.04606 -1.34582,-0.273544 -0.58,-0.580001 z m -51.84,-0.96 c 0.693,-0.277317 1.521,-0.243211 1.84,0.07579 0.319,0.319 -0.248,0.545895 -1.26,0.504211 -1.11835,-0.04606 -1.34582,-0.273544 -0.58,-0.580001 z m -51.84,-0.960001 c 0.693,-0.277316 1.521,-0.24321 1.84,0.07579 0.319,0.319001 -0.248,0.545896 -1.26,0.504212 -1.11835,-0.04606 -1.34582,-0.273544 -0.58,-0.580002 z m -104.64,-1.92 c 0.693,-0.277316 1.521,-0.24321 1.84,0.07579 0.319,0.319001 -0.248,0.545896 -1.26,0.504212 -1.11835,-0.04606 -1.34582,-0.273544 -0.58,-0.580002 z"
         id="path94" />
      <path
         style="fill:#b6b6b6;fill-opacity:1;stroke-width:0.96"
         d="m 771.66,44.464212 c 0.693,-0.277317 1.521,-0.243211 1.84,0.07579 0.319,0.319 -0.248,0.545895 -1.26,0.504211 -1.11835,-0.04606 -1.34582,-0.273544 -0.58,-0.580001 z m -51.84,-0.96 c 0.693,-0.277317 1.521,-0.243211 1.84,0.07579 0.319,0.319 -0.248,0.545895 -1.26,0.504211 -1.11835,-0.04606 -1.34582,-0.273544 -0.58,-0.580001 z m -51.84,-0.96 c 0.693,-0.277317 1.521,-0.243211 1.84,0.07579 0.319,0.319 -0.248,0.545895 -1.26,0.504211 -1.11835,-0.04606 -1.34582,-0.273544 -0.58,-0.580001 z M 459.66,38.704211 c 0.693,-0.277316 1.521,-0.24321 1.84,0.07579 0.319,0.319001 -0.248,0.545896 -1.26,0.504212 -1.11835,-0.04606 -1.34582,-0.273544 -0.58,-0.580002 z"
         id="path92" />
      <path
         style="fill:#aaaaaa;fill-opacity:1;stroke-width:0.96"
         d="m 824.46,45.424212 c 0.693,-0.277317 1.521,-0.243211 1.84,0.07579 0.319,0.319 -0.248,0.545895 -1.26,0.504211 -1.11835,-0.04606 -1.34582,-0.273544 -0.58,-0.580001 z m -206.4,-3.84 c 0.693,-0.277317 1.521,-0.243211 1.84,0.07579 0.319,0.319 -0.248,0.545895 -1.26,0.504211 -1.11835,-0.04606 -1.34582,-0.273544 -0.58,-0.580001 z m -51.84,-0.96 c 0.693,-0.277317 1.521,-0.243211 1.84,0.07579 0.319,0.319 -0.248,0.545895 -1.26,0.504211 -1.11835,-0.04606 -1.34582,-0.273544 -0.58,-0.580001 z m -51.84,-0.960001 c 0.693,-0.277316 1.521,-0.24321 1.84,0.07579 0.319,0.319001 -0.248,0.545896 -1.26,0.504212 -1.11835,-0.04606 -1.34582,-0.273544 -0.58,-0.580002 z m -104.64,-1.92 c 0.693,-0.277316 1.521,-0.24321 1.84,0.07579 0.319,0.319001 -0.248,0.545896 -1.26,0.504212 -1.11835,-0.04606 -1.34582,-0.273544 -0.58,-0.580002 z"
         id="path90" />
      <path
         style="fill:#9e9e9e;fill-opacity:1;stroke-width:0.96"
         d="m 1257.36,227.8025 c 1.188,-0.22882 3.132,-0.22882 4.32,0 1.188,0.22882 0.216,0.41604 -2.16,0.41604 -2.376,0 -3.348,-0.18722 -2.16,-0.41604 z M 776.46,44.464212 c 0.693,-0.277317 1.521,-0.243211 1.84,0.07579 0.319,0.319 -0.248,0.545895 -1.26,0.504211 -1.11835,-0.04606 -1.34582,-0.273544 -0.58,-0.580001 z m -51.84,-0.96 c 0.693,-0.277317 1.521,-0.243211 1.84,0.07579 0.319,0.319 -0.248,0.545895 -1.26,0.504211 -1.11835,-0.04606 -1.34582,-0.273544 -0.58,-0.580001 z m -51.84,-0.96 c 0.693,-0.277317 1.521,-0.243211 1.84,0.07579 0.319,0.319 -0.248,0.545895 -1.26,0.504211 -1.11835,-0.04606 -1.34582,-0.273544 -0.58,-0.580001 z m -51.84,-0.96 c 0.693,-0.277317 1.521,-0.243211 1.84,0.07579 0.319,0.319 -0.248,0.545895 -1.26,0.504211 -1.11835,-0.04606 -1.34582,-0.273544 -0.58,-0.580001 z M 464.46,38.704211 c 0.693,-0.277316 1.521,-0.24321 1.84,0.07579 0.319,0.319001 -0.248,0.545896 -1.26,0.504212 -1.11835,-0.04606 -1.34582,-0.273544 -0.58,-0.580002 z"
         id="path88" />
      <path
         style="fill:#929292;fill-opacity:1;stroke-width:0.96"
         d="m 1252.56,227.84422 c 0.66,-0.26632 1.74,-0.26632 2.4,0 0.66,0.26631 0.12,0.48421 -1.2,0.48421 -1.32,0 -1.86,-0.2179 -1.2,-0.48421 z m 12.4912,-0.0432 c 1.1942,-0.22963 2.9222,-0.22091 3.84,0.0194 0.9178,0.24028 -0.06,0.42816 -2.1712,0.4175 -2.112,-0.0106 -2.863,-0.20725 -1.6688,-0.43687 z M 571.02,40.624212 c 0.693,-0.277317 1.521,-0.243211 1.84,0.07579 0.319,0.319 -0.248,0.545895 -1.26,0.504211 -1.11835,-0.04606 -1.34582,-0.273544 -0.58,-0.580001 z m -51.84,-0.960001 c 0.693,-0.277316 1.521,-0.24321 1.84,0.07579 0.319,0.319001 -0.248,0.545896 -1.26,0.504212 -1.11835,-0.04606 -1.34582,-0.273544 -0.58,-0.580002 z m -104.64,-1.92 c 0.693,-0.277316 1.521,-0.24321 1.84,0.07579 0.319,0.319001 -0.248,0.545896 -1.26,0.504212 -1.11835,-0.04606 -1.34582,-0.273544 -0.58,-0.580002 z"
         id="path86" />
      <path
         style="fill:#868686;fill-opacity:1;stroke-width:0.96"
         d="m 1627.98,333.42422 c 0.693,-0.27731 1.521,-0.24321 1.84,0.0758 0.319,0.31899 -0.248,0.54589 -1.26,0.50421 -1.1184,-0.0461 -1.3458,-0.27354 -0.58,-0.58 z m -378.24,-105.6 c 0.693,-0.27732 1.521,-0.24322 1.84,0.0757 0.319,0.319 -0.248,0.5459 -1.26,0.50421 -1.1184,-0.0461 -1.3458,-0.27354 -0.58,-0.57999 z m 21.06,0.02 c 0.66,-0.26632 1.74,-0.26632 2.4,0 0.66,0.26631 0.12,0.48421 -1.2,0.48421 -1.32,0 -1.86,-0.2179 -1.2,-0.48421 z M 831.18,45.424212 c 0.693,-0.277317 1.521,-0.243211 1.84,0.07579 0.319,0.319 -0.248,0.545895 -1.26,0.504211 -1.11835,-0.04606 -1.34582,-0.273544 -0.58,-0.580001 z m -49.92,-0.96 c 0.693,-0.277317 1.521,-0.243211 1.84,0.07579 0.319,0.319 -0.248,0.545895 -1.26,0.504211 -1.11835,-0.04606 -1.34582,-0.273544 -0.58,-0.580001 z m -51.84,-0.96 c 0.693,-0.277317 1.521,-0.243211 1.84,0.07579 0.319,0.319 -0.248,0.545895 -1.26,0.504211 -1.11835,-0.04606 -1.34582,-0.273544 -0.58,-0.580001 z m -51.84,-0.96 c 0.693,-0.277317 1.521,-0.243211 1.84,0.07579 0.319,0.319 -0.248,0.545895 -1.26,0.504211 -1.11835,-0.04606 -1.34582,-0.273544 -0.58,-0.580001 z m -51.84,-0.96 c 0.693,-0.277317 1.521,-0.243211 1.84,0.07579 0.319,0.319 -0.248,0.545895 -1.26,0.504211 -1.11835,-0.04606 -1.34582,-0.273544 -0.58,-0.580001 z M 469.26,38.704211 c 0.693,-0.277316 1.521,-0.24321 1.84,0.07579 0.319,0.319001 -0.248,0.545896 -1.26,0.504212 -1.11835,-0.04606 -1.34582,-0.273544 -0.58,-0.580002 z"
         id="path84" />
      <path
         style="fill:#7a7a7a;fill-opacity:1;stroke-width:0.96"
         d="m 1609.74,333.42422 c 0.693,-0.27731 1.521,-0.24321 1.84,0.0758 0.319,0.31899 -0.248,0.54589 -1.26,0.50421 -1.1184,-0.0461 -1.3458,-0.27354 -0.58,-0.58 z m -363.9,-105.58 c 0.66,-0.26632 1.74,-0.26632 2.4,0 0.66,0.26631 0.12,0.48421 -1.2,0.48421 -1.32,0 -1.86,-0.2179 -1.2,-0.48421 z M 158.22,63.664212 c 0.693,-0.277316 1.521,-0.24321 1.84,0.07579 0.319,0.319 -0.248,0.545895 -1.26,0.504211 -1.11835,-0.04606 -1.34582,-0.273543 -0.58,-0.58 z m 766.08,-16.32 c 0.693,-0.277316 1.521,-0.243211 1.84,0.07579 0.319,0.319 -0.248,0.545895 -1.26,0.504211 -1.11835,-0.04606 -1.34582,-0.273543 -0.58,-0.580001 z m -43.2,-0.96 c 0.693,-0.277317 1.521,-0.243211 1.84,0.07579 0.319,0.319 -0.248,0.545895 -1.26,0.504211 -1.11835,-0.04606 -1.34582,-0.273544 -0.58,-0.580001 z m -305.28,-5.76 c 0.693,-0.277317 1.521,-0.243211 1.84,0.07579 0.319,0.319 -0.248,0.545895 -1.26,0.504211 -1.11835,-0.04606 -1.34582,-0.273544 -0.58,-0.580001 z m -51.84,-0.960001 c 0.693,-0.277316 1.521,-0.24321 1.84,0.07579 0.319,0.319001 -0.248,0.545896 -1.26,0.504212 -1.11835,-0.04606 -1.34582,-0.273544 -0.58,-0.580002 z m -51.84,-0.96 c 0.693,-0.277316 1.521,-0.24321 1.84,0.07579 0.319,0.319001 -0.248,0.545896 -1.26,0.504212 -1.11835,-0.04606 -1.34582,-0.273544 -0.58,-0.580002 z m -52.8,-0.96 c 0.693,-0.277316 1.521,-0.24321 1.84,0.07579 0.319,0.319001 -0.248,0.545896 -1.26,0.504212 -1.11835,-0.04606 -1.34582,-0.273544 -0.58,-0.580002 z"
         id="path82" />
      <path
         style="fill:#6e6e6e;fill-opacity:1;stroke-width:0.96"
         d="m 1612.56,333.44422 c 0.66,-0.26631 1.74,-0.26631 2.4,0 0.66,0.26631 0.12,0.48421 -1.2,0.48421 -1.32,0 -1.86,-0.2179 -1.2,-0.48421 z m 10.62,-0.02 c 0.693,-0.27731 1.521,-0.24322 1.84,0.0758 0.319,0.31899 -0.248,0.54589 -1.26,0.50421 -1.1184,-0.0461 -1.3458,-0.27355 -0.58,-0.58 z m -380.16,-105.6 c 0.693,-0.27732 1.521,-0.24322 1.84,0.0757 0.319,0.319 -0.248,0.5459 -1.26,0.50421 -1.1184,-0.0461 -1.3458,-0.27354 -0.58,-0.57999 z M 835.98,45.42424 c 0.693,-0.277316 1.521,-0.24321 1.84,0.07579 0.319,0.319001 -0.248,0.545896 -1.26,0.504212 -1.11835,-0.04606 -1.34582,-0.273544 -0.58,-0.580002 z m -49.92,-0.96 c 0.693,-0.277316 1.521,-0.24321 1.84,0.07579 0.319,0.319001 -0.248,0.545896 -1.26,0.504212 -1.11835,-0.04606 -1.34582,-0.273544 -0.58,-0.580002 z m -51.84,-0.96 c 0.693,-0.277316 1.521,-0.24321 1.84,0.07579 0.319,0.319001 -0.248,0.545896 -1.26,0.504212 -1.11835,-0.04606 -1.34582,-0.273544 -0.58,-0.580002 z m -51.84,-0.96 c 0.693,-0.277316 1.521,-0.24321 1.84,0.07579 0.319,0.319001 -0.248,0.545896 -1.26,0.504212 -1.11835,-0.04606 -1.34582,-0.273544 -0.58,-0.580002 z m -51.84,-0.96 c 0.693,-0.277316 1.521,-0.24321 1.84,0.07579 0.319,0.319001 -0.248,0.545896 -1.26,0.504212 -1.11835,-0.04606 -1.34582,-0.273544 -0.58,-0.580002 z m -208.32,-3.84 c 0.693,-0.277316 1.521,-0.24321 1.84,0.07579 0.319,0.319001 -0.248,0.545896 -1.26,0.504211 -1.11835,-0.04606 -1.34582,-0.273543 -0.58,-0.580001 z"
         id="path80" />
      <path
         style="fill:#626262;fill-opacity:1;stroke-width:0.96"
         d="m 1616.46,333.42422 c 0.693,-0.27731 1.521,-0.24321 1.84,0.0758 0.319,0.31899 -0.248,0.54589 -1.26,0.50421 -1.1184,-0.0461 -1.3458,-0.27354 -0.58,-0.58 z M 580.62,40.624212 c 0.693,-0.277317 1.521,-0.243211 1.84,0.07579 0.319,0.319 -0.248,0.545895 -1.26,0.504211 -1.11835,-0.04606 -1.34582,-0.273544 -0.58,-0.580001 z m -51.84,-0.960001 c 0.693,-0.277316 1.521,-0.24321 1.84,0.07579 0.319,0.319001 -0.248,0.545896 -1.26,0.504212 -1.11835,-0.04606 -1.34582,-0.273544 -0.58,-0.580002 z"
         id="path78" />
      <path
         style="fill:#575757;fill-opacity:1;stroke-width:0.96"
         d="m 840.78,45.424212 c 0.693,-0.277317 1.521,-0.243211 1.84,0.07579 0.319,0.319 -0.248,0.545895 -1.26,0.504211 -1.11835,-0.04606 -1.34582,-0.273544 -0.58,-0.580001 z m -101.76,-1.92 c 0.693,-0.277317 1.521,-0.243211 1.84,0.07579 0.319,0.319 -0.248,0.545895 -1.26,0.504211 -1.11835,-0.04606 -1.34582,-0.273544 -0.58,-0.580001 z m -51.84,-0.96 c 0.693,-0.277317 1.521,-0.243211 1.84,0.07579 0.319,0.319 -0.248,0.545895 -1.26,0.504211 -1.11835,-0.04606 -1.34582,-0.273544 -0.58,-0.580001 z m -51.84,-0.96 c 0.693,-0.277317 1.521,-0.243211 1.84,0.07579 0.319,0.319 -0.248,0.545895 -1.26,0.504211 -1.11835,-0.04606 -1.34582,-0.273544 -0.58,-0.580001 z M 478.86,38.704211 c 0.693,-0.277316 1.521,-0.24321 1.84,0.07579 0.319,0.319001 -0.248,0.545896 -1.26,0.504212 -1.11835,-0.04606 -1.34582,-0.273544 -0.58,-0.580002 z"
         id="path76" />
      <path
         style="fill:#4b4b4b;fill-opacity:1;stroke-width:0.96"
         d="m 1028.9975,198 c -1.194,-1.52261 -1.1602,-1.55657 0.3625,-0.36245 0.924,0.72465 1.68,1.48065 1.68,1.68 0,0.79012 -0.7884,0.28157 -2.0425,-1.31755 z M 317.52,54.084212 c 0.66,-0.266316 1.74,-0.266316 2.4,0 0.66,0.266316 0.12,0.48421 -1.2,0.48421 -1.32,0 -1.86,-0.217894 -1.2,-0.48421 z m 475.26,-9.62 c 0.693,-0.277317 1.521,-0.243211 1.84,0.07579 0.319,0.319 -0.248,0.545895 -1.26,0.504211 -1.11835,-0.04606 -1.34582,-0.273544 -0.58,-0.580001 z m -207.36,-3.84 c 0.693,-0.277317 1.521,-0.243211 1.84,0.07579 0.319,0.319 -0.248,0.545895 -1.26,0.504211 -1.11835,-0.04606 -1.34582,-0.273544 -0.58,-0.580001 z m -51.84,-0.960001 c 0.693,-0.277316 1.521,-0.24321 1.84,0.07579 0.319,0.319001 -0.248,0.545896 -1.26,0.504212 -1.11835,-0.04606 -1.34582,-0.273544 -0.58,-0.580002 z m -51.84,-0.96 c 0.693,-0.277316 1.521,-0.24321 1.84,0.07579 0.319,0.319001 -0.248,0.545896 -1.26,0.504212 -1.11835,-0.04606 -1.34582,-0.273544 -0.58,-0.580002 z m -52.8,-0.96 c 0.693,-0.277316 1.521,-0.24321 1.84,0.07579 0.319,0.319001 -0.248,0.545896 -1.26,0.504212 -1.11835,-0.04606 -1.34582,-0.273544 -0.58,-0.580002 z"
         id="path74" />
      <path
         style="fill:#3f3f3f;fill-opacity:1;stroke-width:0.96"
         d="m 1031.8775,200.88 c -1.194,-1.52261 -1.1602,-1.55657 0.3625,-0.36245 0.924,0.72465 1.68,1.48065 1.68,1.68 0,0.79012 -0.7884,0.28157 -2.0425,-1.31755 z M 145.38685,29.280001 c -4e-4,-16.368001 0.1305,-23.198961 0.29089,-15.179912 0.16039,8.019049 0.16073,21.411049 7.4e-4,29.76 -0.15998,8.348952 -0.29121,1.787912 -0.29163,-14.580088 z M 743.82,43.504212 c 0.693,-0.277317 1.521,-0.243211 1.84,0.07579 0.319,0.319 -0.248,0.545895 -1.26,0.504211 -1.11835,-0.04606 -1.34582,-0.273544 -0.58,-0.580001 z m -51.84,-0.96 c 0.693,-0.277317 1.521,-0.243211 1.84,0.07579 0.319,0.319 -0.248,0.545895 -1.26,0.504211 -1.11835,-0.04606 -1.34582,-0.273544 -0.58,-0.580001 z m -51.84,-0.96 c 0.693,-0.277317 1.521,-0.243211 1.84,0.07579 0.319,0.319 -0.248,0.545895 -1.26,0.504211 -1.11835,-0.04606 -1.34582,-0.273544 -0.58,-0.580001 z M 431.82,37.744211 c 0.693,-0.277316 1.521,-0.24321 1.84,0.07579 0.319,0.319001 -0.248,0.545896 -1.26,0.504212 -1.11835,-0.04606 -1.34582,-0.273544 -0.58,-0.580002 z"
         id="path72" />
      <path
         style="fill:#333333;fill-opacity:1;stroke-width:1.00387"
         d="m 1583.0105,332.46669 c -43.1823,-4.06719 -78.9266,-14.90815 -166.3841,-50.46297 -74.7908,-30.40536 -100.9498,-39.54284 -136.4664,-47.66854 -21.9469,-5.02115 -30.1352,-6.0022 -54.5866,-6.54015 -26.3194,-0.57907 -40.1528,0.34604 -68.019,4.54873 -67.8976,10.24015 -92.8468,10.02504 -131.2334,-1.13153 -24.7591,-7.19588 -42.75207,-17.23636 -59.81463,-33.37783 -11.30408,-10.69402 -17.78547,-18.8813 -25.51802,-32.2344 -13.7851,-23.80524 -23.26144,-54.63888 -28.76681,-93.599998 -1.23103,-8.712001 -2.68156,-17.408377 -3.22333,-19.32528 l -0.98497,-3.485279 -11.80298,-0.605682 C 874.26694,47.45771 805.74958,46.174588 424.29573,39.746239 l -151.48759,-2.552905 -14.89647,5.323271 c -19.3634,6.919534 -23.96148,8.075815 -38.80339,9.757902 -6.79787,0.770426 -12.82076,1.661333 -13.38421,1.979792 -2.34018,1.322673 -0.82961,5.040804 3.6994,9.105702 4.408,3.956284 4.72384,4.576156 4.72384,9.271025 0,4.623609 -0.29824,5.239292 -3.68079,7.598734 -4.31375,3.008971 -11.21403,4.01291 -16.53776,2.406122 -5.46232,-1.648614 -6.99041,-3.739729 -7.27482,-9.955245 -0.23498,-5.135521 -0.0191,-5.674386 3.64926,-9.109989 4.08198,-3.822948 5.20996,-8.18518 2.37387,-9.18045 -1.51687,-0.532312 -31.94633,0.686483 -46.52929,1.863643 -6.10749,0.493008 -7.94935,1.021392 -9.18524,2.635018 -2.37926,3.106477 -1.9493,4.193623 3.70285,9.362571 4.67754,4.277669 5.24871,5.251036 5.24871,8.944821 0,5.909247 -2.81928,8.805692 -9.87497,10.145224 -9.00277,1.709193 -16.5914,-0.817088 -19.12733,-6.367558 -2.06525,-4.52029 -0.60479,-8.442859 4.92888,-13.238276 3.1997,-2.772821 4.16228,-4.290864 3.92194,-6.185177 -0.31207,-2.459939 -0.49806,-2.516563 -9.24129,-2.813611 -11.57643,-0.393305 -42.687059,1.503141 -45.251939,2.758474 -3.291377,1.610902 -2.437544,5.522407 2.212528,10.135868 3.747173,3.717667 4.198967,4.689378 4.198967,9.030993 0,3.848733 -0.523745,5.344058 -2.507068,7.157828 -3.012802,2.75524 -8.414543,3.827739 -14.84034,2.946508 -6.912145,-0.947925 -10.099861,-3.858861 -10.723276,-9.792189 -0.494439,-4.70583 -0.380673,-4.947274 4.333793,-9.197701 2.662845,-2.400757 4.84154,-5.22373 4.84154,-6.273275 0,-3.964355 -1.887053,-4.250389 -20.880631,-3.165018 C 11.003742,63.875584 6.0592184,63.739371 2.7659272,61.370325 L 0,59.380648 V 29.690324 0 h 853.44 853.44 v 157.78962 157.78962 l -10.7599,3.852 c -18.3337,6.56343 -36.7838,10.75814 -55.8987,12.70886 -8.7373,0.89166 -48.7842,1.12027 -57.2109,0.32659 z"
         id="path70" />
    </g>
  </g>
</svg>
